<svg width="529" height="157" viewBox="0 0 529 157" fill="none" xmlns="http://www.w3.org/2000/svg">
<path d="M55.5956 136.102V75.0111H96.0445V85.6603H68.5118V100.217H93.3598V110.866H68.5118V136.102H55.5956ZM103.755 136.102V90.2839H116.075V98.2782H116.552C117.388 95.4344 118.79 93.2867 120.758 91.835C122.727 90.3634 124.994 89.6276 127.559 89.6276C128.196 89.6276 128.882 89.6674 129.618 89.7469C130.353 89.8265 131 89.9359 131.557 90.0751V101.351C130.96 101.172 130.135 101.013 129.081 100.873C128.027 100.734 127.062 100.665 126.187 100.665C124.318 100.665 122.647 101.072 121.176 101.888C119.724 102.683 118.571 103.797 117.716 105.228C116.88 106.66 116.463 108.311 116.463 110.18V136.102H103.755ZM138.127 136.102V90.2839H150.834V136.102H138.127ZM144.51 84.3776C142.621 84.3776 141 83.7512 139.648 82.4984C138.315 81.2256 137.649 79.7043 137.649 77.9344C137.649 76.1844 138.315 74.683 139.648 73.4302C141 72.1574 142.621 71.5211 144.51 71.5211C146.399 71.5211 148.01 72.1574 149.342 73.4302C150.695 74.683 151.371 76.1844 151.371 77.9344C151.371 79.7043 150.695 81.2256 149.342 82.4984C148.01 83.7512 146.399 84.3776 144.51 84.3776ZM173.721 109.613V136.102H161.013V90.2839H173.124V98.3677H173.661C174.675 95.7029 176.375 93.5949 178.762 92.0438C181.148 90.4728 184.042 89.6873 187.442 89.6873C190.624 89.6873 193.398 90.3833 195.765 91.7753C198.131 93.1674 199.971 95.156 201.283 97.7413C202.596 100.307 203.252 103.369 203.252 106.929V136.102H190.544V109.196C190.564 106.392 189.848 104.204 188.397 102.633C186.945 101.042 184.946 100.247 182.401 100.247C180.691 100.247 179.179 100.615 177.867 101.351C176.574 102.086 175.56 103.16 174.824 104.572C174.108 105.964 173.74 107.645 173.721 109.613ZM251.389 103.349L239.756 104.065C239.557 103.071 239.129 102.176 238.473 101.38C237.817 100.565 236.952 99.9188 235.878 99.4415C234.824 98.9444 233.561 98.6958 232.09 98.6958C230.121 98.6958 228.46 99.1134 227.108 99.9486C225.756 100.764 225.08 101.858 225.08 103.23C225.08 104.324 225.517 105.248 226.392 106.004C227.267 106.76 228.769 107.366 230.896 107.824L239.189 109.494C243.644 110.409 246.965 111.88 249.152 113.909C251.34 115.937 252.433 118.602 252.433 121.903C252.433 124.906 251.548 127.541 249.778 129.808C248.028 132.075 245.622 133.845 242.56 135.118C239.517 136.371 236.007 136.997 232.03 136.997C225.965 136.997 221.132 135.734 217.533 133.209C213.953 130.663 211.855 127.203 211.239 122.828L223.737 122.172C224.115 124.021 225.03 125.433 226.482 126.407C227.933 127.362 229.793 127.839 232.06 127.839C234.287 127.839 236.077 127.412 237.429 126.557C238.801 125.682 239.497 124.558 239.517 123.186C239.497 122.032 239.01 121.088 238.055 120.352C237.101 119.596 235.629 119.02 233.641 118.622L225.706 117.041C221.232 116.146 217.901 114.595 215.713 112.388C213.546 110.18 212.462 107.366 212.462 103.946C212.462 101.003 213.257 98.4671 214.848 96.3393C216.459 94.2114 218.716 92.5708 221.619 91.4174C224.543 90.264 227.963 89.6873 231.881 89.6873C237.668 89.6873 242.222 90.9103 245.543 93.3563C248.884 95.8023 250.832 99.1333 251.389 103.349ZM281.137 136.997C276.503 136.997 272.496 136.013 269.115 134.044C265.755 132.055 263.16 129.291 261.33 125.751C259.5 122.192 258.586 118.065 258.586 113.372C258.586 108.639 259.5 104.503 261.33 100.963C263.16 97.4032 265.755 94.639 269.115 92.6702C272.496 90.6816 276.503 89.6873 281.137 89.6873C285.77 89.6873 289.767 90.6816 293.128 92.6702C296.509 94.639 299.114 97.4032 300.944 100.963C302.773 104.503 303.688 108.639 303.688 113.372C303.688 118.065 302.773 122.192 300.944 125.751C299.114 129.291 296.509 132.055 293.128 134.044C289.767 136.013 285.77 136.997 281.137 136.997ZM281.196 127.153C283.304 127.153 285.064 126.557 286.476 125.363C287.888 124.15 288.952 122.5 289.668 120.412C290.404 118.324 290.772 115.947 290.772 113.282C290.772 110.618 290.404 108.241 289.668 106.153C288.952 104.065 287.888 102.415 286.476 101.201C285.064 99.9884 283.304 99.3819 281.196 99.3819C279.069 99.3819 277.279 99.9884 275.827 101.201C274.395 102.415 273.312 104.065 272.576 106.153C271.86 108.241 271.502 110.618 271.502 113.282C271.502 115.947 271.86 118.324 272.576 120.412C273.312 122.5 274.395 124.15 275.827 125.363C277.279 126.557 279.069 127.153 281.196 127.153ZM329.304 85.6603V75.0111H379.477V85.6603H360.774V136.102H348.007V85.6603H329.304ZM401.738 136.997C397.025 136.997 392.968 136.042 389.567 134.133C386.187 132.204 383.581 129.48 381.752 125.96C379.922 122.42 379.008 118.234 379.008 113.402C379.008 108.689 379.922 104.552 381.752 100.993C383.581 97.433 386.157 94.6589 389.478 92.6702C392.819 90.6816 396.736 89.6873 401.231 89.6873C404.253 89.6873 407.067 90.1745 409.672 91.1489C412.297 92.1035 414.584 93.5452 416.533 95.4742C418.502 97.4032 420.033 99.8293 421.127 102.753C422.221 105.656 422.767 109.057 422.767 112.954V116.444H384.079V108.569H410.806C410.806 106.74 410.408 105.119 409.613 103.707C408.817 102.295 407.714 101.192 406.302 100.396C404.91 99.5807 403.289 99.1731 401.439 99.1731C399.51 99.1731 397.8 99.6205 396.309 100.515C394.837 101.39 393.684 102.574 392.848 104.065C392.013 105.537 391.586 107.177 391.566 108.987V116.474C391.566 118.741 391.983 120.7 392.819 122.351C393.674 124.001 394.877 125.274 396.428 126.169C397.979 127.064 399.819 127.511 401.946 127.511C403.358 127.511 404.651 127.312 405.824 126.915C406.998 126.517 408.002 125.92 408.837 125.125C409.672 124.329 410.309 123.355 410.746 122.201L422.499 122.977C421.902 125.801 420.679 128.267 418.83 130.375C417 132.463 414.634 134.094 411.731 135.267C408.847 136.42 405.516 136.997 401.738 136.997ZM451.762 136.997C447.069 136.997 443.032 136.003 439.651 134.014C436.29 132.005 433.705 129.221 431.895 125.662C430.106 122.102 429.211 118.005 429.211 113.372C429.211 108.679 430.115 104.562 431.925 101.023C433.755 97.4628 436.35 94.6887 439.711 92.7001C443.071 90.6915 447.069 89.6873 451.702 89.6873C455.699 89.6873 459.199 90.4131 462.202 91.8648C465.205 93.3165 467.581 95.3549 469.331 97.9799C471.081 100.605 472.046 103.687 472.225 107.227H460.233C459.895 104.94 459 103.101 457.549 101.709C456.117 100.297 454.238 99.5907 451.911 99.5907C449.942 99.5907 448.222 100.128 446.75 101.201C445.299 102.255 444.165 103.797 443.35 105.825C442.535 107.853 442.127 110.309 442.127 113.193C442.127 116.116 442.525 118.602 443.32 120.65C444.135 122.699 445.279 124.26 446.75 125.334C448.222 126.407 449.942 126.944 451.911 126.944C453.363 126.944 454.665 126.646 455.819 126.049C456.992 125.453 457.956 124.588 458.712 123.454C459.488 122.301 459.995 120.919 460.233 119.308H472.225C472.026 122.808 471.071 125.89 469.361 128.555C467.671 131.2 465.334 133.268 462.351 134.76C459.368 136.251 455.839 136.997 451.762 136.997ZM493.068 109.613V136.102H480.361V75.0111H492.71V98.3677H493.247C494.281 95.6631 495.952 93.5452 498.259 92.014C500.565 90.4628 503.459 89.6873 506.939 89.6873C510.121 89.6873 512.895 90.3833 515.261 91.7753C517.648 93.1475 519.497 95.1262 520.81 97.7114C522.142 100.277 522.798 103.349 522.778 106.929V136.102H510.071V109.196C510.091 106.372 509.375 104.174 507.923 102.603C506.492 101.032 504.483 100.247 501.898 100.247C500.168 100.247 498.636 100.615 497.304 101.351C495.992 102.086 494.957 103.16 494.202 104.572C493.466 105.964 493.088 107.645 493.068 109.613Z" fill="#009FEA"/>
<path d="M55.5956 136.102H55.453V136.245H55.5956V136.102ZM55.5956 75.0111V74.8686H55.453V75.0111H55.5956ZM96.0445 75.0111H96.187V74.8686H96.0445V75.0111ZM96.0445 85.6603V85.8029H96.187V85.6603H96.0445ZM68.5118 85.6603V85.5177H68.3692V85.6603H68.5118ZM68.5118 100.217H68.3692V100.36H68.5118V100.217ZM93.3598 100.217H93.5024V100.075H93.3598V100.217ZM93.3598 110.866V111.009H93.5024V110.866H93.3598ZM68.5118 110.866V110.724H68.3692V110.866H68.5118ZM68.5118 136.102V136.245H68.6544V136.102H68.5118ZM55.7382 136.102V75.0111H55.453V136.102H55.7382ZM55.5956 75.1537H96.0445V74.8686H55.5956V75.1537ZM95.9019 75.0111V85.6603H96.187V75.0111H95.9019ZM96.0445 85.5177H68.5118V85.8029H96.0445V85.5177ZM68.3692 85.6603V100.217H68.6544V85.6603H68.3692ZM68.5118 100.36H93.3598V100.075H68.5118V100.36ZM93.2172 100.217V110.866H93.5024V100.217H93.2172ZM93.3598 110.724H68.5118V111.009H93.3598V110.724ZM68.3692 110.866V136.102H68.6544V110.866H68.3692ZM68.5118 135.959H55.5956V136.245H68.5118V135.959ZM103.755 136.102H103.613V136.245H103.755V136.102ZM103.755 90.2839V90.1413H103.613V90.2839H103.755ZM116.075 90.2839H116.218V90.1413H116.075V90.2839ZM116.075 98.2782H115.932V98.4208H116.075V98.2782ZM116.552 98.2782V98.4208H116.659L116.689 98.3184L116.552 98.2782ZM120.758 91.835L120.843 91.9498L120.844 91.9492L120.758 91.835ZM129.618 89.7469L129.633 89.6052L129.633 89.6052L129.618 89.7469ZM131.557 90.0751H131.699V89.9637L131.591 89.9367L131.557 90.0751ZM131.557 101.351L131.516 101.487L131.699 101.542V101.351H131.557ZM121.176 101.888L121.244 102.013L121.245 102.012L121.176 101.888ZM117.716 105.228L117.593 105.155L117.592 105.157L117.716 105.228ZM116.463 136.102V136.245H116.605V136.102H116.463ZM103.898 136.102V90.2839H103.613V136.102H103.898ZM103.755 90.4264H116.075V90.1413H103.755V90.4264ZM115.932 90.2839V98.2782H116.218V90.2839H115.932ZM116.075 98.4208H116.552V98.1356H116.075V98.4208ZM116.689 98.3184C117.517 95.498 118.904 93.3793 120.843 91.9498L120.674 91.7203C118.675 93.1941 117.258 95.3709 116.415 98.238L116.689 98.3184ZM120.844 91.9492C122.787 90.4969 125.023 89.7702 127.559 89.7702V89.485C124.965 89.485 122.667 90.2299 120.673 91.7208L120.844 91.9492ZM127.559 89.7702C128.19 89.7702 128.871 89.8096 129.602 89.8887L129.633 89.6052C128.893 89.5252 128.202 89.485 127.559 89.485V89.7702ZM129.602 89.8887C130.333 89.9677 130.973 90.0761 131.522 90.2134L131.591 89.9367C131.026 89.7956 130.373 89.6852 129.633 89.6052L129.602 89.8887ZM131.414 90.0751V101.351H131.699V90.0751H131.414ZM131.598 101.214C130.99 101.032 130.156 100.872 129.099 100.732L129.062 101.015C130.113 101.154 130.93 101.311 131.516 101.487L131.598 101.214ZM129.099 100.732C128.04 100.592 127.07 100.522 126.187 100.522V100.807C127.055 100.807 128.013 100.876 129.062 101.015L129.099 100.732ZM126.187 100.522C124.296 100.522 122.602 100.935 121.107 101.763L121.245 102.012C122.693 101.21 124.339 100.807 126.187 100.807V100.522ZM121.107 101.763C119.633 102.57 118.461 103.702 117.593 105.155L117.838 105.302C118.68 103.891 119.815 102.796 121.244 102.013L121.107 101.763ZM117.592 105.157C116.743 106.613 116.32 108.289 116.32 110.18H116.605C116.605 108.333 117.018 106.708 117.839 105.3L117.592 105.157ZM116.32 110.18V136.102H116.605V110.18H116.32ZM116.463 135.959H103.755V136.245H116.463V135.959ZM138.127 136.102H137.984V136.245H138.127V136.102ZM138.127 90.2839V90.1413H137.984V90.2839H138.127ZM150.834 90.2839H150.976V90.1413H150.834V90.2839ZM150.834 136.102V136.245H150.976V136.102H150.834ZM139.648 82.4984L139.549 82.6015L139.551 82.6029L139.648 82.4984ZM139.648 73.4302L139.745 73.534L139.746 73.534L139.648 73.4302ZM149.342 73.4302L149.244 73.5333L149.246 73.5348L149.342 73.4302ZM149.342 82.4984L149.44 82.6022L149.44 82.6022L149.342 82.4984ZM138.269 136.102V90.2839H137.984V136.102H138.269ZM138.127 90.4264H150.834V90.1413H138.127V90.4264ZM150.691 90.2839V136.102H150.976V90.2839H150.691ZM150.834 135.959H138.127V136.245H150.834V135.959ZM144.51 84.235C142.656 84.235 141.07 83.6215 139.745 82.3938L139.551 82.6029C140.93 83.8809 142.586 84.5202 144.51 84.5202V84.235ZM139.746 82.3953C138.441 81.1482 137.792 79.6636 137.792 77.9344H137.507C137.507 79.745 138.19 81.3031 139.549 82.6015L139.746 82.3953ZM137.792 77.9344C137.792 76.2257 138.44 74.7613 139.745 73.534L139.55 73.3263C138.191 74.6047 137.507 76.1431 137.507 77.9344H137.792ZM139.746 73.534C141.071 72.2866 142.656 71.6637 144.51 71.6637V71.3785C142.585 71.3785 140.929 72.0283 139.55 73.3264L139.746 73.534ZM144.51 71.6637C146.364 71.6637 147.939 72.2866 149.244 73.5333L149.441 73.3271C148.081 72.0283 146.435 71.3785 144.51 71.3785V71.6637ZM149.246 73.5348C150.57 74.7622 151.228 76.2265 151.228 77.9344H151.513C151.513 76.1424 150.819 74.6038 149.439 73.3256L149.246 73.5348ZM151.228 77.9344C151.228 79.6629 150.57 81.1473 149.245 82.3945L149.44 82.6022C150.819 81.304 151.513 79.7458 151.513 77.9344H151.228ZM149.245 82.3945C147.94 83.6216 146.364 84.235 144.51 84.235V84.5202C146.434 84.5202 148.08 83.8808 149.44 82.6022L149.245 82.3945ZM173.721 109.613L173.578 109.612V109.613H173.721ZM173.721 136.102V136.245H173.863V136.102H173.721ZM161.013 136.102H160.871V136.245H161.013V136.102ZM161.013 90.2839V90.1413H160.871V90.2839H161.013ZM173.124 90.2839H173.267V90.1413H173.124V90.2839ZM173.124 98.3677H172.981V98.5103H173.124V98.3677ZM173.661 98.3677V98.5103H173.759L173.794 98.4184L173.661 98.3677ZM178.762 92.0438L178.84 92.1634L178.84 92.1629L178.762 92.0438ZM201.283 97.7413L201.156 97.8058L201.156 97.8062L201.283 97.7413ZM203.252 136.102V136.245H203.394V136.102H203.252ZM190.544 136.102H190.402V136.245H190.544V136.102ZM190.544 109.196L190.402 109.195V109.196H190.544ZM188.397 102.633L188.291 102.729L188.292 102.73L188.397 102.633ZM177.867 101.351L177.797 101.226L177.796 101.227L177.867 101.351ZM174.824 104.572L174.698 104.506L174.698 104.507L174.824 104.572ZM173.578 109.613V136.102H173.863V109.613H173.578ZM173.721 135.959H161.013V136.245H173.721V135.959ZM161.156 136.102V90.2839H160.871V136.102H161.156ZM161.013 90.4264H173.124V90.1413H161.013V90.4264ZM172.981 90.2839V98.3677H173.267V90.2839H172.981ZM173.124 98.5103H173.661V98.2251H173.124V98.5103ZM173.794 98.4184C174.798 95.7818 176.479 93.698 178.84 92.1634L178.684 91.9243C176.272 93.4919 174.553 95.624 173.528 98.317L173.794 98.4184ZM178.84 92.1629C181.199 90.6099 184.064 89.8299 187.442 89.8299V89.5447C184.019 89.5447 181.097 90.3357 178.683 91.9247L178.84 92.1629ZM187.442 89.8299C190.603 89.8299 193.351 90.521 195.692 91.8982L195.837 91.6525C193.445 90.2456 190.645 89.5447 187.442 89.5447V89.8299ZM195.692 91.8982C198.034 93.2757 199.855 95.2434 201.156 97.8058L201.41 97.6767C200.086 95.0686 198.228 93.0591 195.837 91.6525L195.692 91.8982ZM201.156 97.8062C202.456 100.347 203.109 103.386 203.109 106.929H203.394C203.394 103.352 202.735 100.266 201.41 97.6763L201.156 97.8062ZM203.109 106.929V136.102H203.394V106.929H203.109ZM203.252 135.959H190.544V136.245H203.252V135.959ZM190.687 136.102V109.196H190.402V136.102H190.687ZM190.687 109.197C190.707 106.368 189.985 104.142 188.501 102.537L188.292 102.73C189.712 104.267 190.422 106.415 190.402 109.195L190.687 109.197ZM188.502 102.537C187.018 100.911 184.979 100.104 182.401 100.104V100.39C184.914 100.39 186.872 101.174 188.291 102.729L188.502 102.537ZM182.401 100.104C180.67 100.104 179.134 100.477 177.797 101.226L177.937 101.475C179.225 100.753 180.712 100.39 182.401 100.39V100.104ZM177.796 101.227C176.478 101.977 175.445 103.072 174.698 104.506L174.951 104.638C175.675 103.249 176.67 102.196 177.937 101.475L177.796 101.227ZM174.698 104.507C173.969 105.923 173.598 107.627 173.578 109.612L173.863 109.615C173.883 107.663 174.248 106.005 174.951 104.637L174.698 104.507ZM251.389 103.349L251.398 103.492L251.551 103.482L251.531 103.331L251.389 103.349ZM239.756 104.065L239.616 104.093L239.64 104.215L239.765 104.207L239.756 104.065ZM238.473 101.38L238.362 101.47L238.363 101.471L238.473 101.38ZM235.878 99.4415L235.817 99.5705L235.82 99.5718L235.878 99.4415ZM227.108 99.9486L227.182 100.071L227.183 100.07L227.108 99.9486ZM226.392 106.004L226.299 106.112L226.299 106.112L226.392 106.004ZM230.896 107.824L230.866 107.963L230.868 107.963L230.896 107.824ZM239.189 109.494L239.218 109.354L239.217 109.354L239.189 109.494ZM249.152 113.909L249.055 114.013L249.055 114.013L249.152 113.909ZM249.778 129.808L249.666 129.72L249.666 129.721L249.778 129.808ZM242.56 135.118L242.614 135.25L242.614 135.249L242.56 135.118ZM217.533 133.209L217.45 133.325L217.451 133.325L217.533 133.209ZM211.239 122.828L211.231 122.686L211.076 122.694L211.098 122.848L211.239 122.828ZM223.737 122.172L223.877 122.143L223.852 122.023L223.73 122.029L223.737 122.172ZM226.482 126.407L226.402 126.526L226.403 126.527L226.482 126.407ZM237.429 126.557L237.505 126.677L237.506 126.677L237.429 126.557ZM239.517 123.186L239.66 123.188L239.66 123.183L239.517 123.186ZM238.055 120.352L237.967 120.464L237.968 120.465L238.055 120.352ZM233.641 118.622L233.669 118.482L233.669 118.482L233.641 118.622ZM225.706 117.041L225.678 117.181L225.678 117.181L225.706 117.041ZM215.713 112.388L215.611 112.487L215.612 112.488L215.713 112.388ZM214.848 96.3393L214.734 96.2532L214.734 96.2539L214.848 96.3393ZM221.619 91.4174L221.567 91.2848L221.567 91.2849L221.619 91.4174ZM245.543 93.3563L245.458 93.4711L245.458 93.4713L245.543 93.3563ZM251.381 103.207L239.747 103.923L239.765 104.207L251.398 103.492L251.381 103.207ZM239.896 104.037C239.692 103.019 239.254 102.103 238.583 101.29L238.363 101.471C239.005 102.249 239.422 103.122 239.616 104.093L239.896 104.037ZM238.584 101.291C237.912 100.456 237.028 99.7966 235.936 99.3112L235.82 99.5718C236.876 100.041 237.722 100.674 238.362 101.47L238.584 101.291ZM235.939 99.3126C234.861 98.8044 233.577 98.5532 232.09 98.5532V98.8384C233.545 98.8384 234.786 99.0843 235.817 99.5705L235.939 99.3126ZM232.09 98.5532C230.101 98.5532 228.413 98.9752 227.033 99.8273L227.183 100.07C228.508 99.2516 230.141 98.8384 232.09 98.8384V98.5532ZM227.034 99.8265C225.647 100.663 224.937 101.799 224.937 103.23H225.222C225.222 101.916 225.865 100.865 227.182 100.071L227.034 99.8265ZM224.937 103.23C224.937 104.368 225.395 105.331 226.299 106.112L226.485 105.896C225.64 105.166 225.222 104.28 225.222 103.23H224.937ZM226.299 106.112C227.202 106.892 228.732 107.504 230.866 107.963L230.926 107.684C228.805 107.228 227.332 106.628 226.485 105.896L226.299 106.112ZM230.868 107.963L239.161 109.634L239.217 109.354L230.925 107.684L230.868 107.963ZM239.16 109.634C243.602 110.546 246.894 112.01 249.055 114.013L249.249 113.804C247.035 111.751 243.685 110.272 239.218 109.354L239.16 109.634ZM249.055 114.013C251.21 116.012 252.291 118.637 252.291 121.903H252.576C252.576 118.567 251.469 115.863 249.249 113.804L249.055 114.013ZM252.291 121.903C252.291 124.876 251.416 127.479 249.666 129.72L249.891 129.896C251.681 127.602 252.576 124.936 252.576 121.903H252.291ZM249.666 129.721C247.933 131.965 245.548 133.721 242.505 134.986L242.614 135.249C245.696 133.969 248.124 132.185 249.891 129.895L249.666 129.721ZM242.505 134.986C239.483 136.23 235.992 136.854 232.03 136.854V137.14C236.022 137.14 239.551 136.511 242.614 135.25L242.505 134.986ZM232.03 136.854C225.983 136.854 221.183 135.595 217.615 133.092L217.451 133.325C221.082 135.873 225.946 137.14 232.03 137.14V136.854ZM217.615 133.092C214.068 130.57 211.991 127.144 211.38 122.808L211.098 122.848C211.719 127.261 213.838 130.756 217.45 133.325L217.615 133.092ZM211.246 122.97L223.745 122.314L223.73 122.029L211.231 122.686L211.246 122.97ZM223.598 122.2C223.982 124.083 224.917 125.529 226.402 126.526L226.561 126.289C225.143 125.337 224.248 123.959 223.877 122.143L223.598 122.2ZM226.403 126.527C227.884 127.5 229.773 127.982 232.06 127.982V127.697C229.812 127.697 227.982 127.224 226.56 126.288L226.403 126.527ZM232.06 127.982C234.304 127.982 236.123 127.551 237.505 126.677L237.353 126.436C236.031 127.272 234.27 127.697 232.06 127.697V127.982ZM237.506 126.677C238.91 125.782 239.639 124.618 239.66 123.188L239.375 123.184C239.356 124.499 238.693 125.582 237.352 126.436L237.506 126.677ZM239.66 123.183C239.639 121.984 239.13 121 238.143 120.239L237.968 120.465C238.89 121.176 239.355 122.08 239.375 123.188L239.66 123.183ZM238.144 120.24C237.164 119.464 235.666 118.882 233.669 118.482L233.613 118.762C235.592 119.158 237.038 119.729 237.967 120.464L238.144 120.24ZM233.669 118.482L225.734 116.901L225.678 117.181L233.613 118.762L233.669 118.482ZM225.734 116.901C221.275 116.009 217.975 114.467 215.814 112.287L215.612 112.488C217.827 114.723 221.188 116.283 225.678 117.181L225.734 116.901ZM215.815 112.288C213.676 110.11 212.604 107.333 212.604 103.946H212.319C212.319 107.399 213.415 110.25 215.611 112.487L215.815 112.288ZM212.604 103.946C212.604 101.03 213.392 98.5252 214.962 96.4246L214.734 96.2539C213.123 98.409 212.319 100.975 212.319 103.946H212.604ZM214.962 96.4253C216.554 94.3216 218.789 92.6954 221.672 91.5499L221.567 91.2849C218.643 92.4463 216.363 94.1013 214.734 96.2532L214.962 96.4253ZM221.672 91.55C224.575 90.4046 227.977 89.8299 231.881 89.8299V89.5447C227.949 89.5447 224.511 90.1234 221.567 91.2848L221.672 91.55ZM231.881 89.8299C237.649 89.8299 242.17 91.0491 245.458 93.4711L245.627 93.2415C242.274 90.7715 237.686 89.5447 231.881 89.5447V89.8299ZM245.458 93.4713C248.767 95.8937 250.696 99.1894 251.248 103.368L251.531 103.331C250.969 99.0772 249 95.711 245.627 93.2413L245.458 93.4713ZM269.115 134.044L269.043 134.167L269.044 134.167L269.115 134.044ZM261.33 125.751L261.203 125.816L261.203 125.817L261.33 125.751ZM261.33 100.963L261.457 101.028L261.457 101.028L261.33 100.963ZM269.115 92.6702L269.188 92.7933L269.188 92.7931L269.115 92.6702ZM293.128 92.6702L293.056 92.7929L293.057 92.7934L293.128 92.6702ZM300.944 100.963L300.817 101.028L300.817 101.028L300.944 100.963ZM300.944 125.751L301.07 125.817L301.07 125.816L300.944 125.751ZM293.128 134.044L293.2 134.167L293.201 134.167L293.128 134.044ZM286.476 125.363L286.568 125.472L286.569 125.472L286.476 125.363ZM289.668 120.412L289.534 120.364L289.533 120.365L289.668 120.412ZM289.668 106.153L289.533 106.199L289.534 106.201L289.668 106.153ZM275.827 101.201L275.736 101.092L275.735 101.093L275.827 101.201ZM272.576 106.153L272.441 106.106L272.441 106.107L272.576 106.153ZM272.576 120.412L272.441 120.458L272.441 120.459L272.576 120.412ZM275.827 125.363L275.735 125.472L275.737 125.474L275.827 125.363ZM281.137 136.854C276.524 136.854 272.542 135.875 269.187 133.921L269.044 134.167C272.45 136.151 276.483 137.14 281.137 137.14V136.854ZM269.188 133.921C265.851 131.946 263.274 129.202 261.457 125.686L261.203 125.817C263.045 129.38 265.659 132.164 269.043 134.167L269.188 133.921ZM261.457 125.686C259.639 122.15 258.728 118.046 258.728 113.372H258.443C258.443 118.084 259.362 122.233 261.203 125.816L261.457 125.686ZM258.728 113.372C258.728 108.658 259.639 104.544 261.457 101.028L261.203 100.897C259.362 104.461 258.443 108.62 258.443 113.372H258.728ZM261.457 101.028C263.274 97.4918 265.851 94.7479 269.188 92.7933L269.043 92.5472C265.659 94.53 263.045 97.3146 261.203 100.898L261.457 101.028ZM269.188 92.7931C272.543 90.8195 276.524 89.8299 281.137 89.8299V89.5447C276.483 89.5447 272.449 90.5436 269.043 92.5473L269.188 92.7931ZM281.137 89.8299C285.75 89.8299 289.721 90.8196 293.056 92.7929L293.201 92.5475C289.814 90.5436 285.791 89.5447 281.137 89.5447V89.8299ZM293.057 92.7934C296.413 94.7482 298.999 97.492 300.817 101.028L301.07 100.898C299.229 97.3144 296.605 94.5298 293.2 92.547L293.057 92.7934ZM300.817 101.028C302.634 104.544 303.545 108.658 303.545 113.372H303.831C303.831 108.62 302.912 104.461 301.07 100.897L300.817 101.028ZM303.545 113.372C303.545 118.046 302.634 122.15 300.817 125.686L301.07 125.816C302.912 122.233 303.831 118.084 303.831 113.372H303.545ZM300.817 125.686C299 129.202 296.413 131.946 293.056 133.921L293.201 134.167C296.605 132.164 299.229 129.38 301.07 125.817L300.817 125.686ZM293.056 133.921C289.721 135.874 285.75 136.854 281.137 136.854V137.14C285.791 137.14 289.814 136.151 293.2 134.167L293.056 133.921ZM281.196 127.296C283.333 127.296 285.127 126.69 286.568 125.472L286.384 125.255C285.002 126.423 283.276 127.011 281.196 127.011V127.296ZM286.569 125.472C288.004 124.239 289.08 122.566 289.803 120.458L289.533 120.365C288.824 122.434 287.773 124.062 286.383 125.255L286.569 125.472ZM289.803 120.459C290.545 118.353 290.914 115.96 290.914 113.282H290.629C290.629 115.934 290.263 118.294 289.534 120.364L289.803 120.459ZM290.914 113.282C290.914 110.605 290.545 108.212 289.803 106.106L289.534 106.201C290.263 108.271 290.629 110.631 290.629 113.282H290.914ZM289.803 106.107C289.08 103.999 288.004 102.326 286.569 101.093L286.383 101.31C287.773 102.503 288.824 104.131 289.533 106.199L289.803 106.107ZM286.569 101.093C285.128 99.8551 283.334 99.2393 281.196 99.2393V99.5245C283.275 99.5245 285.001 100.122 286.383 101.31L286.569 101.093ZM281.196 99.2393C279.04 99.2393 277.216 99.8549 275.736 101.092L275.919 101.311C277.341 100.122 279.098 99.5245 281.196 99.5245V99.2393ZM275.735 101.093C274.281 102.325 273.184 103.998 272.441 106.106L272.71 106.201C273.439 104.132 274.51 102.504 275.919 101.31L275.735 101.093ZM272.441 106.107C271.719 108.213 271.359 110.605 271.359 113.282H271.644C271.644 110.63 272.001 108.27 272.711 106.199L272.441 106.107ZM271.359 113.282C271.359 115.96 271.719 118.352 272.441 120.458L272.711 120.365C272.001 118.295 271.644 115.935 271.644 113.282H271.359ZM272.441 120.459C273.184 122.567 274.281 124.24 275.735 125.472L275.919 125.255C274.51 124.061 273.439 122.433 272.71 120.364L272.441 120.459ZM275.737 125.474C277.217 126.69 279.04 127.296 281.196 127.296V127.011C279.097 127.011 277.341 126.423 275.918 125.253L275.737 125.474ZM329.304 85.6603H329.161V85.8029H329.304V85.6603ZM329.304 75.0111V74.8686H329.161V75.0111H329.304ZM379.477 75.0111H379.62V74.8686H379.477V75.0111ZM379.477 85.6603V85.8029H379.62V85.6603H379.477ZM360.774 85.6603V85.5177H360.632V85.6603H360.774ZM360.774 136.102V136.245H360.917V136.102H360.774ZM348.007 136.102H347.865V136.245H348.007V136.102ZM348.007 85.6603H348.15V85.5177H348.007V85.6603ZM329.447 85.6603V75.0111H329.161V85.6603H329.447ZM329.304 75.1537H379.477V74.8686H329.304V75.1537ZM379.335 75.0111V85.6603H379.62V75.0111H379.335ZM379.477 85.5177H360.774V85.8029H379.477V85.5177ZM360.632 85.6603V136.102H360.917V85.6603H360.632ZM360.774 135.959H348.007V136.245H360.774V135.959ZM348.15 136.102V85.6603H347.865V136.102H348.15ZM348.007 85.5177H329.304V85.8029H348.007V85.5177ZM389.567 134.133L389.497 134.257L389.497 134.258L389.567 134.133ZM381.752 125.96L381.625 126.025L381.625 126.026L381.752 125.96ZM381.752 100.993L381.625 100.928L381.625 100.928L381.752 100.993ZM389.478 92.6702L389.405 92.5477L389.404 92.5479L389.478 92.6702ZM409.672 91.1489L409.622 91.2825L409.624 91.2829L409.672 91.1489ZM416.533 95.4742L416.433 95.5755L416.433 95.576L416.533 95.4742ZM421.127 102.753L420.993 102.803L420.993 102.803L421.127 102.753ZM422.767 116.444V116.587H422.91V116.444H422.767ZM384.079 116.444H383.936V116.587H384.079V116.444ZM384.079 108.569V108.427H383.936V108.569H384.079ZM410.806 108.569V108.712H410.948V108.569H410.806ZM409.613 103.707L409.488 103.777L409.488 103.777L409.613 103.707ZM406.302 100.396L406.23 100.519L406.232 100.52L406.302 100.396ZM396.309 100.515L396.382 100.638L396.382 100.638L396.309 100.515ZM392.848 104.065L392.972 104.135L392.973 104.135L392.848 104.065ZM391.566 108.987L391.423 108.985V108.987H391.566ZM392.819 122.351L392.691 122.415L392.692 122.416L392.819 122.351ZM405.824 126.915L405.779 126.78L405.779 126.78L405.824 126.915ZM408.837 125.125L408.739 125.022L408.739 125.022L408.837 125.125ZM410.746 122.201L410.756 122.059L410.65 122.052L410.613 122.151L410.746 122.201ZM422.499 122.977L422.639 123.007L422.673 122.846L422.508 122.835L422.499 122.977ZM418.83 130.375L418.723 130.281L418.723 130.281L418.83 130.375ZM411.731 135.267L411.784 135.399L411.784 135.399L411.731 135.267ZM401.738 136.854C397.044 136.854 393.012 135.904 389.637 134.009L389.497 134.258C392.923 136.181 397.005 137.14 401.738 137.14V136.854ZM389.638 134.009C386.281 132.094 383.696 129.39 381.878 125.894L381.625 126.026C383.467 129.569 386.092 132.314 389.497 134.257L389.638 134.009ZM381.879 125.895C380.061 122.379 379.15 118.216 379.15 113.402H378.865C378.865 118.252 379.783 122.462 381.625 126.025L381.879 125.895ZM379.15 113.402C379.15 108.707 380.061 104.594 381.879 101.058L381.625 100.928C379.783 104.511 378.865 108.67 378.865 113.402H379.15ZM381.879 101.058C383.696 97.521 386.254 94.767 389.551 92.7926L389.404 92.5479C386.06 94.5507 383.466 97.345 381.625 100.928L381.879 101.058ZM389.551 92.7927C392.866 90.8192 396.758 89.8299 401.231 89.8299V89.5447C396.715 89.5447 392.771 90.544 389.405 92.5477L389.551 92.7927ZM401.231 89.8299C404.238 89.8299 407.035 90.3145 409.622 91.2825L409.722 91.0154C407.1 90.0345 404.269 89.5447 401.231 89.5447V89.8299ZM409.624 91.2829C412.23 92.2306 414.499 93.6613 416.433 95.5755L416.633 95.3729C414.67 93.4291 412.365 91.9764 409.721 91.0149L409.624 91.2829ZM416.433 95.576C418.385 97.4886 419.906 99.8962 420.993 102.803L421.26 102.703C420.16 99.7624 418.618 97.3178 416.633 95.3724L416.433 95.576ZM420.993 102.803C422.08 105.687 422.625 109.07 422.625 112.954H422.91C422.91 109.044 422.361 105.625 421.26 102.702L420.993 102.803ZM422.625 112.954V116.444H422.91V112.954H422.625ZM422.767 116.302H384.079V116.587H422.767V116.302ZM384.221 116.444V108.569H383.936V116.444H384.221ZM384.079 108.712H410.806V108.427H384.079V108.712ZM410.948 108.569C410.948 106.719 410.546 105.073 409.737 103.637L409.488 103.777C410.27 105.165 410.663 106.761 410.663 108.569H410.948ZM409.737 103.637C408.929 102.203 407.806 101.08 406.372 100.272L406.232 100.52C407.621 101.303 408.706 102.388 409.488 103.777L409.737 103.637ZM406.374 100.273C404.957 99.4431 403.31 99.0305 401.439 99.0305V99.3156C403.267 99.3156 404.862 99.7184 406.23 100.519L406.374 100.273ZM401.439 99.0305C399.487 99.0305 397.751 99.4835 396.235 100.393L396.382 100.638C397.849 99.7575 399.533 99.3156 401.439 99.3156V99.0305ZM396.236 100.393C394.743 101.281 393.572 102.482 392.724 103.995L392.973 104.135C393.796 102.665 394.931 101.5 396.382 100.638L396.236 100.393ZM392.724 103.995C391.876 105.489 391.443 107.153 391.423 108.985L391.708 108.989C391.728 107.201 392.15 105.585 392.972 104.135L392.724 103.995ZM391.423 108.987V116.474H391.708V108.987H391.423ZM391.423 116.474C391.423 118.759 391.844 120.74 392.691 122.415L392.946 122.286C392.123 120.66 391.708 118.724 391.708 116.474H391.423ZM392.692 122.416C393.559 124.09 394.781 125.383 396.357 126.292L396.499 126.045C394.973 125.165 393.788 123.912 392.945 122.285L392.692 122.416ZM396.357 126.292C397.933 127.202 399.798 127.654 401.946 127.654V127.369C399.839 127.369 398.025 126.926 396.499 126.045L396.357 126.292ZM401.946 127.654C403.372 127.654 404.68 127.453 405.87 127.05L405.779 126.78C404.622 127.172 403.345 127.369 401.946 127.369V127.654ZM405.87 127.05C407.062 126.646 408.084 126.039 408.935 125.228L408.739 125.022C407.92 125.802 406.934 126.388 405.779 126.78L405.87 127.05ZM408.935 125.228C409.787 124.417 410.435 123.424 410.879 122.252L410.613 122.151C410.182 123.286 409.557 124.242 408.739 125.022L408.935 125.228ZM410.737 122.344L422.49 123.119L422.508 122.835L410.756 122.059L410.737 122.344ZM422.36 122.948C421.768 125.748 420.556 128.192 418.723 130.281L418.937 130.469C420.803 128.342 422.037 125.854 422.639 123.007L422.36 122.948ZM418.723 130.281C416.91 132.35 414.563 133.969 411.677 135.135L411.784 135.399C414.705 134.218 417.091 132.576 418.937 130.469L418.723 130.281ZM411.678 135.134C408.814 136.28 405.502 136.854 401.738 136.854V137.14C405.53 137.14 408.88 136.561 411.784 135.399L411.678 135.134ZM439.651 134.014L439.578 134.136L439.579 134.137L439.651 134.014ZM431.895 125.662L431.768 125.726L431.768 125.726L431.895 125.662ZM431.925 101.023L431.798 100.957L431.798 100.958L431.925 101.023ZM439.711 92.7001L439.783 92.8228L439.784 92.8224L439.711 92.7001ZM462.202 91.8648L462.264 91.7365L462.264 91.7365L462.202 91.8648ZM472.225 107.227V107.37H472.375L472.367 107.22L472.225 107.227ZM460.233 107.227L460.092 107.248L460.11 107.37H460.233V107.227ZM457.549 101.709L457.449 101.81L457.45 101.811L457.549 101.709ZM446.75 101.201L446.834 101.317L446.834 101.317L446.75 101.201ZM443.32 120.65L443.187 120.702L443.188 120.703L443.32 120.65ZM446.75 125.334L446.834 125.218L446.834 125.218L446.75 125.334ZM455.819 126.049L455.754 125.922L455.753 125.923L455.819 126.049ZM458.712 123.454L458.594 123.375L458.593 123.375L458.712 123.454ZM460.233 119.308V119.165H460.11L460.092 119.287L460.233 119.308ZM472.225 119.308L472.367 119.316L472.376 119.165H472.225V119.308ZM469.361 128.555L469.241 128.478L469.241 128.478L469.361 128.555ZM462.351 134.76L462.288 134.632L462.288 134.632L462.351 134.76ZM451.762 136.854C447.089 136.854 443.078 135.865 439.723 133.891L439.579 134.137C442.985 136.141 447.048 137.14 451.762 137.14V136.854ZM439.724 133.892C436.387 131.897 433.82 129.133 432.022 125.597L431.768 125.726C433.59 129.309 436.194 132.114 439.578 134.136L439.724 133.892ZM432.023 125.598C430.244 122.061 429.353 117.987 429.353 113.372H429.068C429.068 118.024 429.967 122.143 431.768 125.726L432.023 125.598ZM429.353 113.372C429.353 108.697 430.254 104.604 432.052 101.087L431.798 100.958C429.977 104.521 429.068 108.66 429.068 113.372H429.353ZM432.052 101.088C433.87 97.5513 436.446 94.7974 439.783 92.8228L439.638 92.5774C436.254 94.58 433.64 97.3744 431.798 100.957L432.052 101.088ZM439.784 92.8224C443.119 90.8294 447.09 89.8299 451.702 89.8299V89.5447C447.048 89.5447 443.024 90.5537 439.638 92.5777L439.784 92.8224ZM451.702 89.8299C455.682 89.8299 459.16 90.5525 462.14 91.9932L462.264 91.7365C459.239 90.2737 455.717 89.5447 451.702 89.5447V89.8299ZM462.14 91.9932C465.121 93.4345 467.478 95.4564 469.213 98.059L469.45 97.9008C467.685 95.2534 465.289 93.1986 462.264 91.7365L462.14 91.9932ZM469.213 98.059C470.947 100.66 471.905 103.717 472.082 107.234L472.367 107.22C472.187 103.658 471.216 100.55 469.45 97.9008L469.213 98.059ZM472.225 107.084H460.233V107.37H472.225V107.084ZM460.374 107.206C460.032 104.893 459.125 103.023 457.647 101.606L457.45 101.811C458.876 103.178 459.758 104.987 460.092 107.248L460.374 107.206ZM457.649 101.607C456.186 100.165 454.269 99.4481 451.911 99.4481V99.7333C454.207 99.7333 456.048 100.429 457.449 101.81L457.649 101.607ZM451.911 99.4481C449.915 99.4481 448.164 99.9932 446.666 101.086L446.834 101.317C448.28 100.262 449.97 99.7333 451.911 99.7333V99.4481ZM446.667 101.086C445.189 102.159 444.041 103.724 443.218 105.772L443.482 105.878C444.29 103.869 445.409 102.352 446.834 101.317L446.667 101.086ZM443.218 105.772C442.394 107.822 441.984 110.297 441.984 113.193H442.269C442.269 110.322 442.675 107.885 443.482 105.878L443.218 105.772ZM441.984 113.193C441.984 116.128 442.384 118.633 443.187 120.702L443.453 120.599C442.666 118.571 442.269 116.104 442.269 113.193H441.984ZM443.188 120.703C444.011 122.771 445.169 124.356 446.666 125.449L446.834 125.218C445.389 124.163 444.26 122.626 443.453 120.598L443.188 120.703ZM446.666 125.449C448.164 126.542 449.915 127.087 451.911 127.087V126.802C449.97 126.802 448.28 126.273 446.834 125.218L446.666 125.449ZM451.911 127.087C453.383 127.087 454.708 126.784 455.884 126.176L455.753 125.923C454.622 126.508 453.343 126.802 451.911 126.802V127.087ZM455.883 126.177C457.079 125.568 458.062 124.687 458.831 123.533L458.593 123.375C457.851 124.489 456.905 125.337 455.754 125.922L455.883 126.177ZM458.83 123.534C459.62 122.36 460.133 120.957 460.374 119.329L460.092 119.287C459.856 120.88 459.356 122.242 458.594 123.375L458.83 123.534ZM460.233 119.451H472.225V119.165H460.233V119.451ZM472.083 119.3C471.885 122.778 470.937 125.836 469.241 128.478L469.481 128.632C471.206 125.945 472.167 122.838 472.367 119.316L472.083 119.3ZM469.241 128.478C467.565 131.1 465.249 133.151 462.288 134.632L462.415 134.887C465.42 133.385 467.776 131.3 469.481 128.632L469.241 128.478ZM462.288 134.632C459.328 136.112 455.821 136.854 451.762 136.854V137.14C455.856 137.14 459.408 136.391 462.415 134.887L462.288 134.632ZM493.068 109.613L492.926 109.612V109.613H493.068ZM493.068 136.102V136.245H493.211V136.102H493.068ZM480.361 136.102H480.218V136.245H480.361V136.102ZM480.361 75.0111V74.8686H480.218V75.0111H480.361ZM492.71 75.0111H492.853V74.8686H492.71V75.0111ZM492.71 98.3677H492.568V98.5103H492.71V98.3677ZM493.247 98.3677V98.5103H493.345L493.38 98.4186L493.247 98.3677ZM498.259 92.014L498.337 92.1328L498.338 92.1323L498.259 92.014ZM515.261 91.7753L515.189 91.8982L515.19 91.8989L515.261 91.7753ZM520.81 97.7114L520.683 97.776L520.683 97.7771L520.81 97.7114ZM522.778 106.929L522.636 106.928V106.929H522.778ZM522.778 136.102V136.245H522.921V136.102H522.778ZM510.071 136.102H509.929V136.245H510.071V136.102ZM510.071 109.196L509.929 109.195V109.196H510.071ZM507.923 102.603L507.818 102.7L507.819 102.7L507.923 102.603ZM497.304 101.351L497.235 101.226L497.234 101.226L497.304 101.351ZM494.202 104.572L494.076 104.505L494.076 104.506L494.202 104.572ZM492.926 109.613V136.102H493.211V109.613H492.926ZM493.068 135.959H480.361V136.245H493.068V135.959ZM480.503 136.102V75.0111H480.218V136.102H480.503ZM480.361 75.1537H492.71V74.8686H480.361V75.1537ZM492.568 75.0111V98.3677H492.853V75.0111H492.568ZM492.71 98.5103H493.247V98.2251H492.71V98.5103ZM493.38 98.4186C494.404 95.7404 496.057 93.6468 498.337 92.1328L498.18 91.8952C495.847 93.4436 494.158 95.5858 493.114 98.3168L493.38 98.4186ZM498.338 92.1323C500.616 90.6005 503.48 89.8299 506.939 89.8299V89.5447C503.438 89.5447 500.515 90.3251 498.179 91.8957L498.338 92.1323ZM506.939 89.8299C510.099 89.8299 512.848 90.521 515.189 91.8982L515.334 91.6525C512.942 90.2456 510.142 89.5447 506.939 89.5447V89.8299ZM515.19 91.8989C517.551 93.2565 519.382 95.2141 520.683 97.776L520.937 97.6469C519.613 95.0383 517.744 93.0385 515.333 91.6517L515.19 91.8989ZM520.683 97.7771C522.003 100.318 522.656 103.366 522.636 106.928L522.921 106.93C522.941 103.332 522.282 100.236 520.936 97.6457L520.683 97.7771ZM522.636 106.929V136.102H522.921V106.929H522.636ZM522.778 135.959H510.071V136.245H522.778V135.959ZM510.214 136.102V109.196H509.929V136.102H510.214ZM510.214 109.197C510.234 106.349 509.511 104.112 508.028 102.507L507.819 102.7C509.239 104.237 509.948 106.395 509.929 109.195L510.214 109.197ZM508.029 102.507C506.564 100.9 504.514 100.104 501.898 100.104V100.39C504.452 100.39 506.419 101.164 507.818 102.7L508.029 102.507ZM501.898 100.104C500.147 100.104 498.591 100.477 497.235 101.226L497.373 101.475C498.682 100.753 500.188 100.39 501.898 100.39V100.104ZM497.234 101.226C495.897 101.976 494.844 103.071 494.076 104.505L494.327 104.639C495.071 103.25 496.087 102.197 497.374 101.475L497.234 101.226ZM494.076 104.506C493.327 105.922 492.946 107.626 492.926 109.612L493.211 109.615C493.231 107.663 493.605 106.006 494.328 104.639L494.076 104.506Z" fill="#009FEA"/>
<path fill-rule="evenodd" clip-rule="evenodd" d="M191.992 62.028C190.836 40.6372 168 31.5316 148.632 32.2543C142.707 32.3988 115.824 -8.0702 73.3312 18.0901C44.5693 35.7231 55.8428 58.9928 47.4599 62.1725C24.6238 71.278 5.25647 85.4422 10.026 113.626C13.6393 134.583 28.5262 142.677 47.3154 147.013C260.934 147.447 154.125 146.724 368.177 149.325C327.853 150.048 87.0617 155.54 46.8818 154.384C29.2488 153.806 10.6042 139.786 4.38928 123.021C-7.46237 91.0789 13.3503 66.2194 42.2567 54.9459C43.5575 41.7934 45.581 33.1215 54.831 21.9925C79.9797 -8.0702 122.906 -5.75769 149.933 22.2816C175.515 21.9925 200.809 34.7114 202.543 62.317C202.398 65.2077 199.941 67.5202 197.051 67.3756C194.16 67.3756 191.848 64.9186 191.992 62.028Z" fill="#009FEA" stroke="#009FEA" stroke-width="0.288"/>
</svg>
